<?xml version="1.0" encoding="UTF-8" standalone="no"?>
<svg
   xmlns:dc="http://purl.org/dc/elements/1.1/"
   xmlns:cc="http://creativecommons.org/ns#"
   xmlns:rdf="http://www.w3.org/1999/02/22-rdf-syntax-ns#"
   xmlns:svg="http://www.w3.org/2000/svg"
   xmlns="http://www.w3.org/2000/svg"
   viewBox="0 0 3003.6267 2443.3601"
   height="2443.3601"
   width="3003.6267"
   xml:space="preserve"
   id="svg2"
   version="1.1"><metadata
     id="metadata8"><rdf:RDF><cc:Work
         rdf:about=""><dc:format>image/svg+xml</dc:format><dc:type
           rdf:resource="http://purl.org/dc/dcmitype/StillImage" /></cc:Work></rdf:RDF></metadata><defs
     id="defs6" /><g
     transform="matrix(1.3333333,0,0,-1.3333333,0,2443.36)"
     id="g10"><g
       transform="scale(0.1)"
       id="g12"><g
         transform="scale(1.38202)"
         id="g14"><path
           id="path16"
           style="fill:#040606;fill-opacity:1;fill-rule:nonzero;stroke:none"
           d="m 16300.1,13256.9 -1,-6627.06 L 16298,0 0,2.75015 1.08536,6629.84 2.17073,13259.7 16300.1,13256.9" /></g><g
         transform="scale(1.24627)"
         id="g18"><path
           id="path20"
           style="fill:#ffffff;fill-opacity:1;fill-rule:nonzero;stroke:none"
           d="m 14303,4736.21 h 1997 v -391.49 h -1997 v 391.49" /></g><g
         transform="scale(1.24627)"
         id="g22"><path
           id="path24"
           style="fill:#ffffff;fill-opacity:1;fill-rule:nonzero;stroke:none"
           d="m 16300,5491.43 v -391.49 h -1997 v 391.49 h 1997" /></g><path
         id="path26"
         style="fill:#ffffff;fill-opacity:1;fill-rule:nonzero;stroke:none"
         d="m 12428.4,5902.6 h 2459.4 v -487.9 h -2459.4 v 487.9" /><path
         id="path28"
         style="fill:#ffffff;fill-opacity:1;fill-rule:nonzero;stroke:none"
         d="m 12428.4,6843.8 h 2459.4 v -487.9 h -2459.4 v 487.9" /><g
         transform="scale(1.01617)"
         id="g30"><path
           id="path32"
           style="fill:#ffffff;fill-opacity:1;fill-rule:nonzero;stroke:none"
           d="m 15926.6,5808.66 h 373.4 l -174.6,-475.31 h -28.9 l -169.9,475.31" /></g><g
         transform="scale(1.03613)"
         id="g34"><path
           id="path36"
           style="fill:#ffffff;fill-opacity:1;fill-rule:nonzero;stroke:none"
           d="M 15286.6,6605.12 H 16300 l -161.9,-470.88 h -675.5 l -176,470.88" /></g><path
         id="path38"
         style="fill:#ffffff;fill-opacity:1;fill-rule:nonzero;stroke:none"
         d="m 13394.5,7790.3 h 1493.3 v -488 h -1493.3 v 488" /><g
         transform="scale(1.05699)"
         id="g40"><path
           id="path42"
           style="fill:#ffffff;fill-opacity:1;fill-rule:nonzero;stroke:none"
           d="M 14663.4,7370.24 H 16300 l -167.8,-461.68 h -1301 l -167.8,461.68" /></g><g
         transform="scale(1.18519)"
         id="g44"><path
           id="path46"
           style="fill:#ffffff;fill-opacity:1;fill-rule:nonzero;stroke:none"
           d="M 15040.1,6573.04 H 16300 v -411.75 h -1259.9 v 411.75" /></g><path
         id="path48"
         style="fill:#ffffff;fill-opacity:1;fill-rule:nonzero;stroke:none"
         d="m 13394.5,8731.79 h 1493.3 V 8243.9 h -1493.3 v 487.89" /><g
         transform="scale(1.07785)"
         id="g50"><path
           id="path52"
           style="fill:#ffffff;fill-opacity:1;fill-rule:nonzero;stroke:none"
           d="M 14064.2,8101.1 H 16300 l -160.1,-452.65 h -1906.6 l -169.1,452.65" /></g><g
         transform="scale(1.18519)"
         id="g54"><path
           id="path56"
           style="fill:#ffffff;fill-opacity:1;fill-rule:nonzero;stroke:none"
           d="m 16300,6955.76 h -1259.9 v 411.66 H 16300 v -411.66" /></g><g
         transform="scale(1.18519)"
         id="g58"><path
           id="path60"
           style="fill:#ffffff;fill-opacity:1;fill-rule:nonzero;stroke:none"
           d="m 15040.1,7982.62 -87.4,-228.66 h -2311.9 l -79.3,228.66 v -228.66 h -1259.9 v 411.69 h 2378.6 l 124.8,-345.01 124.6,345.01 H 16300 v -411.69 h -1259.9 v 228.66" /></g><path
         id="path62"
         style="fill:#ffffff;fill-opacity:1;fill-rule:nonzero;stroke:none"
         d="m 13394.5,10624.3 h 2474.3 l 177.5,-488 h -2651.8 v 488" /><g
         transform="scale(1.18549)"
         id="g64"><path
           id="path66"
           style="fill:#ffffff;fill-opacity:1;fill-rule:nonzero;stroke:none"
           d="m 16300,8550.32 h -2249.1 l 149.6,411.58 H 16300 v -411.58" /></g><g
         transform="scale(1.24476)"
         id="g68"><path
           id="path70"
           style="fill:#ffffff;fill-opacity:1;fill-rule:nonzero;stroke:none"
           d="m 16300,8903.5 h -2645 l 130.8,387.81 H 16300 V 8903.5" /></g><g
         transform="scale(1.24476)"
         id="g72"><path
           id="path74"
           style="fill:#ffffff;fill-opacity:1;fill-rule:nonzero;stroke:none"
           d="m 16300,9659.63 h -2371.6 l 142.5,391.97 H 16300 v -391.97" /></g><path
         id="path76"
         style="fill:#ffffff;fill-opacity:1;fill-rule:nonzero;stroke:none"
         d="m 15701.1,11082.7 h -3302.2 v 482.8 h 3139.7 l 162.5,-482.8" /><path
         id="path78"
         style="fill:#ffffff;fill-opacity:1;fill-rule:nonzero;stroke:none"
         d="m 15375.7,12023.9 h -2976.8 v 488 h 2799.4 l 177.4,-488" /><path
         id="path80"
         style="fill:#ffffff;fill-opacity:1;fill-rule:nonzero;stroke:none"
         d="m 6514.32,5902.6 h 4918.78 c 0,0 -502.8,-483 -1168.2,-483 H 6514.32 v 483" /><path
         id="path82"
         style="fill:#ffffff;fill-opacity:1;fill-rule:nonzero;stroke:none"
         d="m 6514.32,6843.8 h 5495.48 c 0,0 -64.2,-374.2 -177.5,-487.9 H 6514.32 v 487.9" /><path
         id="path84"
         style="fill:#ffffff;fill-opacity:1;fill-rule:nonzero;stroke:none"
         d="m 7504.73,7790.3 h 1493.59 v -488 H 7504.73 v 488" /><path
         id="path86"
         style="fill:#ffffff;fill-opacity:1;fill-rule:nonzero;stroke:none"
         d="m 11955.3,7790.3 c 0,0 93.6,-261.3 93.6,-488 h -1591.6 v 488 h 1498" /><path
         id="path88"
         style="fill:#ffffff;fill-opacity:1;fill-rule:nonzero;stroke:none"
         d="M 11748.5,8243.9 H 7504.73 v 487.89 h 3819.87 c 0,0 320.2,-251.58 423.9,-487.89" /><path
         id="path90"
         style="fill:#ffffff;fill-opacity:1;fill-rule:nonzero;stroke:none"
         d="m 11748.5,9677.85 c -103.7,-236.34 -423.9,-487.93 -423.9,-487.93 H 7504.73 v 487.93 h 4243.77" /><path
         id="path92"
         style="fill:#ffffff;fill-opacity:1;fill-rule:nonzero;stroke:none"
         d="m 8998.32,10624.3 v -488 H 7504.73 v 488 h 1493.59" /><path
         id="path94"
         style="fill:#ffffff;fill-opacity:1;fill-rule:nonzero;stroke:none"
         d="m 11950.5,10136.3 h -1493.2 v 488 h 1586.8 c 0,-231.9 -93.6,-488 -93.6,-488" /><path
         id="path96"
         style="fill:#ffffff;fill-opacity:1;fill-rule:nonzero;stroke:none"
         d="M 11438,12023.9 H 6514.32 v 488 h 3755.48 c 665.3,0 1168.2,-488 1168.2,-488" /><path
         id="path98"
         style="fill:#ffffff;fill-opacity:1;fill-rule:nonzero;stroke:none"
         d="M 12004.6,11082.7 H 6514.32 v 482.8 h 5312.78 c 113.3,-108.5 177.5,-482.8 177.5,-482.8" /><path
         id="path100"
         style="fill:#ffffff;fill-opacity:1;fill-rule:nonzero;stroke:none"
         d="M 2595.99,5902.6 H 6051 V 5414.7 H 2595.99 v 487.9" /><path
         id="path102"
         style="fill:#ffffff;fill-opacity:1;fill-rule:nonzero;stroke:none"
         d="M 2595.99,6843.8 H 6051 V 6355.9 H 2595.99 v 487.9" /><path
         id="path104"
         style="fill:#ffffff;fill-opacity:1;fill-rule:nonzero;stroke:none"
         d="m 3562.14,7790.3 h 1493.25 v -488 H 3562.14 v 488" /><path
         id="path106"
         style="fill:#ffffff;fill-opacity:1;fill-rule:nonzero;stroke:none"
         d="M 5055.39,8243.9 H 3562.14 v 487.89 H 5055.39 V 8243.9" /><path
         id="path108"
         style="fill:#ffffff;fill-opacity:1;fill-rule:nonzero;stroke:none"
         d="M 5055.39,10136.3 H 3562.14 v 488 h 1493.25 v -488" /><path
         id="path110"
         style="fill:#ffffff;fill-opacity:1;fill-rule:nonzero;stroke:none"
         d="M 5055.39,9189.92 H 3562.14 v 487.93 h 1493.25 v -487.93" /><path
         id="path112"
         style="fill:#ffffff;fill-opacity:1;fill-rule:nonzero;stroke:none"
         d="m 6026.39,11077.5 h -3455 v 488 h 3455 v -488" /><path
         id="path114"
         style="fill:#ffffff;fill-opacity:1;fill-rule:nonzero;stroke:none"
         d="m 6026.39,12023.9 h -3455 v 488 h 3455 v -488" /></g></g></svg>